<svg xmlns="http://www.w3.org/2000/svg" width="23" height="24" viewBox="0 0 23 24">
    <path fill="#223c50" fill-rule="evenodd" d="M.075 20.244l2.753-5.902a10.179 10.179 0 0 0 6.311 4.203l.328.063-2.304 4.94c-.278.597-1.101.592-1.395.046l-.048-.108-1.181-3.244-.244-.114-3.244 1.181c-.614.227-1.209-.368-1.013-.97l.037-.095 2.753-5.902zm19.52-5.902l2.752 5.902c.28.598-.266 1.237-.879 1.094l-.097-.029-3.244-1.18-.243.113-1.181 3.244c-.224.614-1.044.688-1.386.167l-.058-.104-2.304-4.94a10.176 10.176 0 0 0 6.64-4.267zM11.21 0c4.743 0 8.602 3.859 8.602 8.602 0 4.744-3.859 8.603-8.602 8.603S2.61 13.345 2.61 8.602 6.468 0 11.21 0zm.701 4.42a.782.782 0 0 0-1.402 0l-.943 1.91-2.108.306a.783.783 0 0 0-.433 1.334L8.55 9.457l-.36 2.1a.783.783 0 0 0 1.134.825l1.886-.992 1.886.992a.783.783 0 0 0 1.135-.825l-.36-2.1 1.525-1.487a.783.783 0 0 0-.433-1.334l-2.109-.306z"/>
</svg>
